<svg width="131" height="131" viewBox="0 0 131 131" fill="none" xmlns="http://www.w3.org/2000/svg">
<path d="M65.5 0C29.344 0 0 29.344 0 65.5C0 101.656 29.344 131 65.5 131C101.656 131 131 101.656 131 65.5C131 29.344 101.656 0 65.5 0ZM65.5 104.276C44.0815 104.276 26.724 86.9185 26.724 65.5C26.724 44.0815 44.0815 26.724 65.5 26.724C86.9185 26.724 104.276 44.0815 104.276 65.5C104.276 86.9185 86.9185 104.276 65.5 104.276ZM65.5 31.5055C46.767 31.5055 31.5055 46.767 31.5055 65.5C31.5055 84.233 46.767 99.4945 65.5 99.4945C84.233 99.4945 99.4945 84.233 99.4945 65.5C99.4945 46.767 84.233 31.5055 65.5 31.5055ZM52.8585 84.8225V46.1775L86.329 65.5L52.8585 84.8225Z" fill="white"/>
</svg>
